<svg width="57" height="57" viewBox="0 0 57 57" fill="none" xmlns="http://www.w3.org/2000/svg">
<g filter="url(#filter0_bi_1_3992)">
<rect x="0.5" y="0.454102" width="56" height="56" rx="28" fill="url(#paint0_linear_1_3992)"/>
<path d="M37.4461 24.7591C37.4351 24.0021 37.2951 23.2511 37.0271 22.5431C36.5581 21.3341 35.6031 20.3781 34.3941 19.9101C33.6951 19.6471 32.9561 19.5061 32.2081 19.4901C31.2461 19.4471 30.9411 19.4351 28.4991 19.4351C26.0571 19.4351 25.7441 19.4351 24.7891 19.4901C24.0421 19.5061 23.3031 19.6471 22.6041 19.9101C21.3951 20.3781 20.4391 21.3341 19.9711 22.5431C19.7081 23.2421 19.5661 23.9811 19.5521 24.7281C19.5091 25.6911 19.4961 25.9961 19.4961 28.4381C19.4961 30.8801 19.4961 31.1921 19.5521 32.1481C19.5671 32.8961 19.7081 33.6341 19.9711 34.3351C20.4401 35.5431 21.3951 36.4991 22.6051 36.9671C23.3011 37.2391 24.0401 37.3931 24.7901 37.4171C25.7531 37.4601 26.0581 37.4731 28.5001 37.4731C30.9421 37.4731 31.2551 37.4731 32.2101 37.4171C32.9571 37.4021 33.6961 37.2611 34.3961 36.9981C35.6051 36.5291 36.5601 35.5731 37.0291 34.3651C37.2921 33.6651 37.4331 32.9271 37.4481 32.1781C37.4911 31.2161 37.5041 30.9111 37.5041 28.4681C37.5021 26.0261 37.5021 25.7161 37.4461 24.7591ZM28.4931 33.0561C25.9391 33.0561 23.8701 30.9871 23.8701 28.4331C23.8701 25.8791 25.9391 23.8101 28.4931 23.8101C31.0451 23.8101 33.1161 25.8791 33.1161 28.4331C33.1161 30.9871 31.0451 33.0561 28.4931 33.0561ZM33.3001 24.7171C32.7031 24.7171 32.2221 24.2351 32.2221 23.6391C32.2221 23.0431 32.7031 22.5611 33.3001 22.5611C33.8951 22.5611 34.3771 23.0431 34.3771 23.6391C34.3771 24.2351 33.8951 24.7171 33.3001 24.7171Z" fill="#9CA3AF"/>
<path d="M28.4932 31.4361C30.1517 31.4361 31.4962 30.0916 31.4962 28.4331C31.4962 26.7746 30.1517 25.4301 28.4932 25.4301C26.8347 25.4301 25.4902 26.7746 25.4902 28.4331C25.4902 30.0916 26.8347 31.4361 28.4932 31.4361Z" fill="#9CA3AF"/>
</g>
<defs>
<filter id="filter0_bi_1_3992" x="-9.5" y="-9.5459" width="76" height="76" filterUnits="userSpaceOnUse" color-interpolation-filters="sRGB">
<feFlood flood-opacity="0" result="BackgroundImageFix"/>
<feGaussianBlur in="BackgroundImageFix" stdDeviation="5"/>
<feComposite in2="SourceAlpha" operator="in" result="effect1_backgroundBlur_1_3992"/>
<feBlend mode="normal" in="SourceGraphic" in2="effect1_backgroundBlur_1_3992" result="shape"/>
<feColorMatrix in="SourceAlpha" type="matrix" values="0 0 0 0 0 0 0 0 0 0 0 0 0 0 0 0 0 0 127 0" result="hardAlpha"/>
<feOffset dy="1"/>
<feComposite in2="hardAlpha" operator="arithmetic" k2="-1" k3="1"/>
<feColorMatrix type="matrix" values="0 0 0 0 1 0 0 0 0 1 0 0 0 0 1 0 0 0 0.15 0"/>
<feBlend mode="normal" in2="shape" result="effect2_innerShadow_1_3992"/>
</filter>
<linearGradient id="paint0_linear_1_3992" x1="0.5" y1="0.454102" x2="32.0618" y2="67.9091" gradientUnits="userSpaceOnUse">
<stop stop-color="white" stop-opacity="0.1"/>
<stop offset="1" stop-color="white" stop-opacity="0.04"/>
</linearGradient>
</defs>
</svg>
